<svg width="23" height="35" viewBox="0 0 23 35" fill="none"
    xmlns="http://www.w3.org/2000/svg">
    <g clip-path="url(#clip0_2_3687)">
        <mask id="mask0_2_3687" style="mask-type:luminance" maskUnits="userSpaceOnUse" x="0" y="0" width="23" height="35">
            <path d="M23 0H0V35H23V0Z" fill="white"/>
        </mask>
        <g mask="url(#mask0_2_3687)">
            <path d="M0 11.5568C3.10683e-05 9.61389 0.487531 7.70236 1.41743 5.99892C2.34733 4.29547 3.68961 2.85511 5.32017 1.81099C6.95073 0.766874 8.81695 0.152701 10.7463 0.0252576C12.6756 -0.102186 14.6058 0.261213 16.3583 1.08186C18.1109 1.9025 19.6292 3.1539 20.7731 4.72036C21.9169 6.28682 22.6492 8.11778 22.9023 10.044C23.1555 11.9701 22.9212 13.9293 22.2213 15.7405C21.5214 17.5516 20.3784 19.1562 18.8979 20.4058L10.6029 27.4719L2.13584 34.6885C1.94703 34.8492 1.71641 34.9523 1.47119 34.9857C1.22597 35.019 0.976372 34.9812 0.75185 34.8766C0.527328 34.7721 0.337247 34.6052 0.20403 34.3956C0.0708132 34.1861 1.93098e-05 33.9426 0 33.694L0 11.6294C0 11.6043 0 11.5792 0 11.5555" fill="#00B1A1"/>
            <path d="M7.39854 13.1019C8.83257 13.1021 10.2356 13.5212 11.437 14.3081C12.6384 15.0949 13.5863 16.2156 14.1654 17.5339C14.7446 18.8522 14.93 20.3112 14.6991 21.7334C14.4682 23.1556 13.831 24.4797 12.865 25.5447L11.4349 26.769L10.6029 27.4717L2.13584 34.6883C1.94703 34.849 1.71641 34.9521 1.47119 34.9855C1.22597 35.0188 0.976372 34.981 0.75185 34.8764C0.527328 34.7719 0.337247 34.605 0.20403 34.3954C0.0708132 34.1859 1.93098e-05 33.9424 0 33.6938L0 20.5364C0 18.5646 0.779486 16.6736 2.16698 15.2794C3.55448 13.8851 5.43632 13.1019 7.39854 13.1019Z" fill="#F64F4A"/>
            <path d="M5.27453 19.7994C6.31151 19.7987 7.32567 20.1052 8.19018 20.6807C9.0547 21.2561 9.73118 22.0749 10.135 23.0347C10.5389 23.9944 10.6521 25.0525 10.4607 26.0766C10.2692 27.1007 9.78151 28.0454 9.05858 28.7924L8.26996 29.4621L2.13321 34.6922C1.94409 34.8524 1.71336 34.9549 1.4682 34.9876C1.22305 35.0203 0.973691 34.982 0.749509 34.8771C0.525327 34.7721 0.335665 34.605 0.202873 34.3953C0.0700807 34.1857 -0.000308135 33.9423 1.01398e-06 33.6938V25.0943C1.01398e-06 23.6886 0.555709 22.3405 1.54488 21.3465C2.53404 20.3525 3.87564 19.7941 5.27453 19.7941" fill="#93CFA9"/>
            <path d="M5.27453 19.7994C6.31151 19.7987 7.32567 20.1052 8.19018 20.6807C9.0547 21.2561 9.73118 22.0749 10.135 23.0347C10.5389 23.9944 10.6521 25.0525 10.4607 26.0766C10.2692 27.1007 9.78151 28.0454 9.05858 28.7924L8.26996 29.4621L2.13321 34.6922C1.94409 34.8524 1.71336 34.9549 1.4682 34.9876C1.22305 35.0203 0.973691 34.982 0.749509 34.8771C0.525327 34.7721 0.335665 34.605 0.202873 34.3953C0.0700807 34.1857 -0.000308135 33.9423 1.01398e-06 33.6938V25.0943C1.01398e-06 23.6886 0.555709 22.3405 1.54488 21.3465C2.53404 20.3525 3.87564 19.7941 5.27453 19.7941" fill="#F6C500"/>
        </g>
    </g>
    <defs>
        <clipPath id="clip0_2_3687">
            <rect width="23" height="35" fill="white"/>
        </clipPath>
    </defs>
</svg>
